<?xml version="1.0" encoding="UTF-8"?>
<svg id="Layer_1" xmlns="http://www.w3.org/2000/svg" version="1.1" viewBox="0 0 311.81 368.5">
  <!-- Generator: Adobe Illustrator 29.7.1, SVG Export Plug-In . SVG Version: 2.1.1 Build 8)  -->
  <defs>
    <style>
      .st0 {
        fill: #fff;
      }

      .st1 {
        fill: #2f313b;
      }

      .st2 {
        fill: #f47421;
      }

      .st3 {
        fill: #9c7b54;
      }
    </style>
  </defs>
  <g>
    <rect class="st0" x="75.37" y="63.86" width="162.63" height="112.76"/>
    <path class="st2" d="M154.8,14.14c-58.53,0-105.97,47.44-105.97,105.97s47.44,105.97,105.97,105.97,105.97-47.44,105.97-105.97S213.33,14.14,154.8,14.14h0ZM122,160.47h-40.79l47.87-82.92,20.42,35.31-27.51,47.61h.01ZM185.2,160.47l-52.04-89.97h40.88l51.94,89.97h-40.78Z"/>
  </g>
  <path class="st1" d="M36.13,267.95v-13.35c-.06-3.12-1.13-5.6-3.17-7.37-2.01-1.74-4.75-2.62-8.14-2.62s-6.08.91-8.35,2.69c-2.35,1.85-3.53,4.09-3.53,6.66v1.07l5.27.05v-1.08c0-1.22.56-2.26,1.72-3.16,1.23-.96,2.82-1.44,4.73-1.44,2.09,0,3.67.49,4.7,1.44,1.02.95,1.52,2.25,1.52,3.97v2.13h-4.58c-4.29,0-7.71.87-10.16,2.59-2.58,1.8-3.88,4.29-3.88,7.39,0,2.62.97,4.81,2.87,6.53,1.87,1.69,4.33,2.54,7.3,2.54,2.04,0,4-.42,5.82-1.25,1.06-.49,2.03-1.1,2.88-1.83.11.72.25,1.33.43,1.85l.25.72h5.17v-1.6l-.08-.2c-.51-1.22-.77-3.14-.77-5.7M22.79,271.06c-1.62,0-2.88-.42-3.86-1.29-.94-.84-1.4-1.86-1.4-3.13,0-1.54.7-2.73,2.13-3.63,1.57-.99,3.83-1.51,6.73-1.54h4.49v4.89c-.66,1.38-1.69,2.51-3.07,3.36-1.46.9-3.15,1.35-5.02,1.35"/>
  <rect class="st1" x="40.46" y="235.92" width="5.27" height="39.54"/>
  <rect class="st1" x="50.23" y="235.92" width="5.27" height="39.54"/>
  <path class="st1" d="M93.08,250.27c-.39-.68-.76-1.18-.95-1.42-1.21-1.53-2.53-2.34-2.97-2.6-2.3-1.41-4.75-1.71-6.39-1.71-.29,0-.55,0-.77.02-.84.05-3.08.18-5.51,1.59-.83.48-2.93,1.88-4.42,4.49-1.77,3.09-1.71,6.23-1.68,7.92v26.88h5.25v-11.95c2.06,1.65,4.67,2.49,7.78,2.49,3.6,0,6.52-1.44,8.67-4.29,2.08-2.75,3.13-6.49,3.13-11.1v-.44c0-2.36-.26-4.5-.77-6.38-.29-1.08-.67-2.24-1.37-3.48M75.64,267.05v-9.97c-.01-.18-.27-4.32,2.69-6.43.76-.54,2.1-1.19,4.14-1.19h.17c.61,0,1.89.02,3.23.76.8.44,1.48,1.07,2.07,1.91,1.34,1.89,2.02,4.55,2.02,7.9,0,3.73-.68,6.59-2.01,8.49-1.26,1.8-2.98,2.68-5.25,2.68-1.68,0-3.15-.38-4.36-1.12-1.14-.7-2.04-1.71-2.69-3.03"/>
  <path class="st1" d="M168.8,250.27c-.39-.68-.77-1.18-.96-1.42-1.21-1.53-2.53-2.34-2.96-2.6-2.31-1.41-4.75-1.71-6.4-1.71-.29,0-.55,0-.77.02-.84.05-3.08.18-5.51,1.59-.83.48-2.93,1.88-4.42,4.49-1.77,3.09-1.71,6.23-1.68,7.92v26.88h5.25v-11.95c2.06,1.65,4.68,2.49,7.78,2.49,3.6,0,6.52-1.44,8.67-4.29,2.08-2.75,3.13-6.49,3.13-11.1v-.44c0-2.36-.26-4.5-.77-6.38-.29-1.08-.66-2.24-1.37-3.48M154.05,270.08c-1.14-.7-2.04-1.71-2.69-3.02v-9.97c0-.18-.27-4.32,2.69-6.43.76-.54,2.1-1.19,4.13-1.19h.18c.61,0,1.89.02,3.23.76.8.44,1.48,1.07,2.07,1.91,1.34,1.89,2.01,4.55,2.01,7.89,0,3.73-.68,6.59-2.01,8.49-1.26,1.8-2.98,2.68-5.25,2.68-1.68,0-3.15-.38-4.36-1.12"/>
  <path class="st1" d="M113.5,249.91l1.23.23.14-4.87-.28-.06s-1.21-.26-2.91-.26c-2.79,0-6.72.68-9.58,3.94-2.53,2.88-2.52,6.77-2.5,9.61v16.96h5.25v-19.69c0-1.57,1.28-3.66,2.48-4.62,1.16-.94,2.55-1.39,4.26-1.39.67,0,1.32.06,1.92.16"/>
  <path class="st1" d="M214.46,244.95c-2.79,0-6.72.68-9.58,3.94-2.53,2.89-2.51,6.77-2.5,9.61v16.96h5.25v-19.69c0-1.57,1.28-3.66,2.48-4.62,1.16-.93,2.55-1.39,4.26-1.39.68,0,1.32.06,1.91.17l1.24.23.13-4.87-.28-.06s-1.21-.27-2.91-.27"/>
  <path class="st1" d="M128.56,244.61c-2.63,0-5.01.66-7.1,1.97-2.08,1.31-3.71,3.16-4.85,5.5-1.12,2.31-1.68,4.93-1.68,7.79v.63c0,4.59,1.27,8.35,3.77,11.17,2.54,2.86,5.87,4.3,9.91,4.3,2.64,0,5.03-.65,7.1-1.93,2.08-1.28,3.71-3.13,4.84-5.49,1.12-2.32,1.68-4.95,1.68-7.82v-.65c0-4.59-1.26-8.35-3.76-11.17-2.53-2.86-5.87-4.31-9.92-4.31M128.61,271.19c-2.51,0-4.48-.93-6.03-2.84-1.58-1.95-2.38-4.51-2.38-7.62v-.57c0-3.26.81-5.91,2.39-7.88,1.55-1.93,3.5-2.87,5.96-2.87,1.63,0,3.09.43,4.34,1.29,1.27.86,2.27,2.11,2.98,3.7.73,1.65,1.11,3.49,1.11,5.47v.6c0,3.27-.8,5.93-2.38,7.88-1.54,1.91-3.51,2.84-6,2.84"/>
  <path class="st1" d="M198.36,270.54l.59-.85-3.62-2.75-.65.84c-.93,1.2-1.97,2.08-3.09,2.61s-2.45.81-3.95.81c-2.47,0-4.47-.92-6.1-2.82-1.56-1.81-2.39-4.1-2.48-6.81h20.1v-2.82c0-4.29-1.1-7.75-3.27-10.27-2.21-2.57-5.22-3.87-8.95-3.87-2.39,0-4.64.69-6.69,2.04-2.03,1.35-3.63,3.21-4.76,5.55-1.12,2.31-1.68,4.93-1.68,7.79v1.12c0,2.78.58,5.34,1.73,7.59,1.16,2.28,2.82,4.08,4.92,5.36,2.1,1.28,4.47,1.93,7.06,1.93,4.71,0,8.37-1.83,10.86-5.44M186.93,249.41c2.05,0,3.66.71,4.91,2.18,1.15,1.34,1.83,3.08,2.02,5.18h-14.53c.42-2.1,1.24-3.82,2.46-5.12,1.41-1.51,3.09-2.24,5.14-2.24"/>
  <path class="st1" d="M228.22,275.97c1.54,0,2.75-.16,3.69-.5l.75-.27-.23-4.51-1.17.18c-1.1.17-1.9.25-2.37.25-.96,0-1.61-.23-1.96-.71-.42-.57-.64-1.53-.64-2.85v-17.72h5.83v-4.7h-5.83v-7.21h-5.27v29.64c0,2.65.57,4.72,1.68,6.15,1.18,1.51,3.03,2.27,5.51,2.27"/>
  <path class="st1" d="M239.31,234.89c-.97,0-1.76.32-2.35.95-.57.61-.86,1.36-.86,2.22s.29,1.62.87,2.22c.59.61,1.38.93,2.34.93s1.74-.31,2.34-.91c.59-.6.89-1.35.89-2.23s-.3-1.62-.89-2.24c-.6-.62-1.39-.93-2.35-.93"/>
  <rect class="st1" x="236.81" y="245.12" width="5.27" height="30.33"/>
  <path class="st1" d="M259.43,244.61c-2.39,0-4.64.69-6.69,2.04-2.03,1.35-3.63,3.21-4.76,5.55-1.12,2.31-1.68,4.93-1.68,7.79v1.12c0,2.78.58,5.34,1.73,7.59,1.16,2.28,2.82,4.08,4.92,5.36,2.1,1.28,4.47,1.93,7.06,1.93,4.71,0,8.37-1.83,10.86-5.44l.58-.85-3.62-2.75-.65.84c-.93,1.2-1.97,2.08-3.09,2.61s-2.45.81-3.95.81c-2.47,0-4.47-.92-6.1-2.82-1.56-1.81-2.39-4.1-2.48-6.81h20.1v-2.82c0-4.29-1.1-7.75-3.27-10.27-2.21-2.57-5.22-3.87-8.95-3.87M259.43,249.41c2.05,0,3.66.71,4.91,2.18,1.15,1.34,1.83,3.08,2.02,5.18h-14.53c.42-2.1,1.24-3.82,2.46-5.12,1.41-1.51,3.09-2.24,5.14-2.24"/>
  <path class="st1" d="M296.19,262.75c-.76-1.18-1.92-2.19-3.43-3-1.47-.78-3.56-1.49-6.41-2.15-2.58-.61-4.35-1.26-5.26-1.94-.76-.57-1.12-1.33-1.12-2.41s.46-1.99,1.42-2.69c1.05-.77,2.49-1.16,4.3-1.16s3.37.47,4.55,1.41c1.12.89,1.66,1.96,1.66,3.27v1.07h5.27v-1.07c0-2.83-1.09-5.15-3.25-6.91-2.09-1.71-4.86-2.57-8.24-2.57-3.13,0-5.76.81-7.8,2.4-2.12,1.65-3.2,3.79-3.2,6.35,0,1.62.4,3.03,1.18,4.2.77,1.14,1.95,2.11,3.49,2.87,1.47.73,3.46,1.36,6.08,1.91,2.33.49,4.08,1.17,5.19,2.01.97.73,1.43,1.66,1.43,2.86,0,1.1-.51,2-1.56,2.75-1.14.82-2.7,1.23-4.64,1.23-2.09,0-3.77-.44-4.99-1.32-1.15-.83-1.76-1.96-1.86-3.46l-.06-1h-5.21v1.07c0,2.77,1.17,5.08,3.48,6.88,2.22,1.73,5.13,2.61,8.64,2.61,3.31,0,6.05-.79,8.15-2.35,2.2-1.63,3.31-3.84,3.31-6.57,0-1.66-.39-3.11-1.16-4.31"/>
  <path class="st1" d="M77.67,300.05c.95-1.16,2.23-1.73,3.89-1.73,1.37,0,2.48.33,3.29.98.8.64,1.3,1.59,1.52,2.9l.16.93h4.03l-.16-1.26c-.29-2.25-1.23-4.06-2.79-5.36-1.55-1.29-3.58-1.94-6.05-1.94-2.86,0-5.18,1-6.9,2.97-1.68,1.92-2.53,4.54-2.53,7.78v2.72c0,2.06.41,3.93,1.2,5.55.81,1.66,1.97,2.96,3.45,3.88,1.48.91,3.18,1.37,5.07,1.37,1.78,0,3.43-.28,4.89-.82,1.55-.58,2.72-1.41,3.48-2.5l.2-.29v-9.1h-9.81v3.76h5.76v3.97c-.24.2-.56.39-.95.57-.97.43-2.17.64-3.57.64-1.12,0-2.11-.28-2.96-.85-.85-.56-1.52-1.38-1.99-2.44-.49-1.1-.74-2.4-.74-3.88v-2.53c0-2.32.51-4.11,1.5-5.32"/>
  <path class="st1" d="M126.62,313.94v-2.17c-.04-2.19-.84-3.88-2.31-4.93.45-.35.84-.75,1.18-1.19.83-1.08,1.25-2.35,1.25-3.75,0-2.29-.76-4.06-2.26-5.29-1.43-1.16-3.44-1.75-5.98-1.75h-8.41v23.67h4.05v-9.67h4.78c1.22,0,2.15.28,2.79.83.6.53.89,1.29.89,2.34v1.69c0,2.13.43,3.59,1.31,4.47l.33.33h3.42v-1.95l-.35-.33c-.44-.42-.67-1.19-.67-2.31M114.12,298.62h4.35c1.54,0,2.65.29,3.3.87.62.56.92,1.34.92,2.39s-.32,1.82-.99,2.34c-.74.58-1.89.87-3.44.87h-4.14v-6.48h0Z"/>
  <path class="st1" d="M160.19,295.92c-1.44-.91-3.11-1.36-4.96-1.36s-3.53.47-4.98,1.39-2.57,2.25-3.35,3.95c-.76,1.65-1.14,3.55-1.14,5.66v2.21c0,3.31.87,5.99,2.58,7.98,1.76,2.04,4.08,3.08,6.92,3.08,1.87,0,3.55-.47,4.99-1.38,1.44-.92,2.57-2.24,3.34-3.93.75-1.63,1.12-3.54,1.12-5.66v-2.58c-.03-2.07-.43-3.92-1.18-5.51-.78-1.64-1.9-2.94-3.34-3.84M155.26,315.02c-1.68,0-2.96-.59-3.93-1.81-1.01-1.28-1.52-3.08-1.52-5.36v-2.24c0-2.36.51-4.19,1.53-5.45.97-1.2,2.24-1.79,3.9-1.79s2.98.58,3.93,1.78c1,1.25,1.51,3.06,1.51,5.37v2.27c0,2.36-.5,4.19-1.49,5.45-.93,1.19-2.22,1.77-3.92,1.77"/>
  <path class="st1" d="M196.72,310.49c0,1.49-.39,2.6-1.21,3.39-.82.8-1.93,1.19-3.41,1.19s-2.6-.39-3.42-1.18c-.81-.79-1.21-1.9-1.21-3.4v-15.63h-4.03v15.92c.06,2.49.89,4.48,2.48,5.92,1.57,1.42,3.64,2.14,6.18,2.14,1.65,0,3.15-.33,4.44-.98,1.34-.67,2.39-1.65,3.12-2.9.73-1.24,1.1-2.69,1.11-4.34v-15.76h-4.06v15.64h.01Z"/>
  <path class="st1" d="M234.77,296.83c-1.49-1.32-3.52-1.99-6.02-1.99h-8.43v23.69h4.04v-8.74h4.34c2.63,0,4.69-.65,6.14-1.92,1.49-1.31,2.24-3.16,2.24-5.5s-.78-4.18-2.31-5.54M233.04,302.39c0,1.18-.33,2.05-1.02,2.67-.71.64-1.81.97-3.27.97h-4.38v-7.42h4.49c1.39.02,2.45.37,3.15,1.04s1.04,1.57,1.04,2.74"/>
  <path class="st3" d="M42.91,346.45h6.93v6.45c-1.57,1.64-3.99,2.62-6.34,2.62-4.54,0-8.39-3.71-8.39-8.12s3.85-8.09,8.39-8.09c2.35,0,4.77.98,6.34,2.62l-2.44,2.19c-.93-1.07-2.46-1.76-3.9-1.76-2.67,0-4.92,2.33-4.92,5.04s2.26,5.06,4.92,5.06c1.07,0,2.17-.37,3.06-1v-2.39h-3.65v-2.62Z"/>
  <path class="st3" d="M62.17,347.4c0-4.4,3.83-8.09,8.32-8.09s8.32,3.69,8.32,8.09-3.79,8.12-8.32,8.12-8.32-3.71-8.32-8.12M75.37,347.4c0-2.71-2.23-5.04-4.88-5.04s-4.86,2.33-4.86,5.04,2.24,5.06,4.86,5.06,4.88-2.33,4.88-5.06"/>
  <polygon class="st3" points="102.68 352.22 102.68 355.25 91.51 355.25 91.51 339.59 94.88 339.59 94.88 352.22 102.68 352.22"/>
  <path class="st3" d="M114.79,339.58h5.61c5.27,0,9.01,3.24,9.01,7.82s-3.74,7.84-9.01,7.84h-5.61v-15.66ZM120.83,352.19c2.99,0,5.11-1.98,5.11-4.79s-2.12-4.77-5.11-4.77h-2.69v9.55h2.69Z"/>
  <path class="st3" d="M157.84,347.4c0-4.4,3.83-8.09,8.32-8.09,2.37,0,4.56,1,6.09,2.62l-2.44,2.19c-.91-1.05-2.21-1.76-3.65-1.76-2.62,0-4.86,2.33-4.86,5.04s2.24,5.06,4.86,5.06c1.44,0,2.74-.71,3.65-1.76l2.44,2.19c-1.53,1.6-3.72,2.62-6.09,2.62-4.49,0-8.32-3.71-8.32-8.12"/>
  <path class="st3" d="M183.33,347.4c0-4.4,3.83-8.09,8.32-8.09s8.32,3.69,8.32,8.09-3.79,8.12-8.32,8.12-8.32-3.71-8.32-8.12M196.53,347.4c0-2.71-2.23-5.04-4.88-5.04s-4.86,2.33-4.86,5.04,2.24,5.06,4.86,5.06,4.88-2.33,4.88-5.06"/>
  <path class="st3" d="M222.23,352.79h-6.98l-1,2.46h-3.76l6.38-15.66h3.76l6.39,15.66h-3.79l-1.01-2.46h0ZM221.06,349.94l-2.33-5.72-2.32,5.72h4.65Z"/>
  <path class="st3" d="M238,352.92l1.94-2.3c1.48,1.28,3.17,2.05,5.15,2.05,1.69,0,2.55-.77,2.55-1.75,0-1.12-.91-1.46-3.3-2.01-3.31-.75-5.65-1.69-5.65-4.72s2.37-4.88,5.79-4.88c2.55,0,4.54.8,6.13,2.17l-1.76,2.42c-1.39-1.12-2.96-1.73-4.47-1.73s-2.3.75-2.3,1.69c0,1.14.93,1.51,3.35,2.05,3.38.75,5.61,1.75,5.61,4.65s-2.26,4.97-6.09,4.97c-2.71,0-5.13-.91-6.95-2.6"/>
  <polygon class="st3" points="267.47 342.62 262.59 342.62 262.59 339.58 275.72 339.58 275.72 342.62 270.84 342.62 270.84 355.25 267.47 355.25 267.47 342.62"/>
</svg>