<?xml version="1.0" encoding="UTF-8"?>
<svg id="Layer_1" xmlns="http://www.w3.org/2000/svg" version="1.1" viewBox="0 0 926.6 231.91">
  <!-- Generator: Adobe Illustrator 30.0.0, SVG Export Plug-In . SVG Version: 2.1.1 Build 123)  -->
  <defs>
    <style>
      .st0 {
        fill: #fff;
      }

      .st1 {
        fill: #f0e9db;
      }

      .st2 {
        fill: #f47421;
      }
    </style>
  </defs>
  <path class="st1" d="M321.64,159.02h11.94v11.12c-2.71,2.83-6.87,4.52-10.92,4.52-7.82,0-14.45-6.4-14.45-13.98s6.64-13.94,14.45-13.94c4.04,0,8.21,1.69,10.92,4.52l-4.2,3.77c-1.61-1.85-4.24-3.02-6.72-3.02-4.6,0-8.48,4.01-8.48,8.68s3.89,8.72,8.48,8.72c1.85,0,3.73-.63,5.26-1.73v-4.12h-6.28v-4.54Z"/>
  <path class="st1" d="M364.8,160.67c0-7.58,6.6-13.94,14.34-13.94s14.33,6.36,14.33,13.94-6.52,13.98-14.33,13.98-14.34-6.4-14.34-13.98M387.54,160.67c0-4.67-3.85-8.68-8.4-8.68s-8.37,4.01-8.37,8.68,3.85,8.72,8.37,8.72,8.4-4.01,8.4-8.72"/>
  <polygon class="st1" points="444.56 168.95 444.56 174.17 425.32 174.17 425.32 147.19 431.13 147.19 431.13 168.95 444.56 168.95"/>
  <path class="st1" d="M475.38,147.19h9.66c9.07,0,15.51,5.58,15.51,13.47s-6.44,13.51-15.51,13.51h-9.66v-26.98ZM485.79,168.91c5.15,0,8.8-3.42,8.8-8.25s-3.65-8.21-8.8-8.21h-4.63v16.46h4.63Z"/>
  <path class="st1" d="M569.9,160.67c0-7.58,6.6-13.94,14.34-13.94,4.08,0,7.85,1.73,10.48,4.52l-4.2,3.77c-1.57-1.81-3.81-3.02-6.28-3.02-4.52,0-8.37,4.01-8.37,8.68s3.85,8.72,8.37,8.72c2.47,0,4.71-1.22,6.28-3.03l4.2,3.77c-2.63,2.75-6.4,4.52-10.48,4.52-7.74,0-14.34-6.4-14.34-13.98"/>
  <path class="st1" d="M623.75,160.67c0-7.58,6.6-13.94,14.34-13.94s14.33,6.36,14.33,13.94-6.52,13.98-14.33,13.98-14.34-6.4-14.34-13.98M646.49,160.67c0-4.67-3.85-8.68-8.4-8.68s-8.37,4.01-8.37,8.68,3.85,8.72,8.37,8.72,8.4-4.01,8.4-8.72"/>
  <path class="st1" d="M700.7,169.93h-12.02l-1.73,4.24h-6.48l11-26.98h6.48l11,26.98h-6.52l-1.73-4.24ZM698.7,165.02l-4.01-9.86-4.01,9.86h8.02Z"/>
  <path class="st1" d="M737.84,170.17l3.34-3.97c2.55,2.2,5.46,3.53,8.88,3.53,2.91,0,4.4-1.33,4.4-3.02,0-1.93-1.57-2.51-5.69-3.46-5.7-1.3-9.74-2.91-9.74-8.13s4.08-8.41,9.98-8.41c4.4,0,7.82,1.38,10.57,3.73l-3.03,4.16c-2.39-1.92-5.1-2.99-7.7-2.99s-3.97,1.3-3.97,2.91c0,1.96,1.61,2.59,5.77,3.53,5.81,1.3,9.66,3.02,9.66,8.01s-3.89,8.56-10.49,8.56c-4.67,0-8.84-1.57-11.98-4.48"/>
  <polygon class="st1" points="798.58 152.42 790.18 152.42 790.18 147.19 812.8 147.19 812.8 152.42 804.39 152.42 804.39 174.18 798.58 174.18 798.58 152.42"/>
  <path class="st0" d="M266.14,105.08v-22.01c-.1-5.09-1.83-9.13-5.16-12.01-3.27-2.83-7.74-4.27-13.29-4.27s-9.94,1.48-13.64,4.4c-3.82,3-5.76,6.65-5.76,10.84v1.57l8.32.07v-1.6c0-2.08.95-3.83,2.91-5.36,2.05-1.6,4.71-2.41,7.91-2.41,3.49,0,6.14.82,7.87,2.43,1.73,1.6,2.56,3.79,2.56,6.67v3.7h-7.73c-7.02,0-12.62,1.42-16.64,4.23-4.19,2.94-6.32,6.99-6.32,12.03,0,4.26,1.57,7.83,4.66,10.62,3.05,2.75,7.05,4.14,11.9,4.14,3.34,0,6.54-.69,9.52-2.05,1.84-.84,3.51-1.92,4.97-3.21.18,1.33.43,2.43.76,3.35l.37,1.06h8.2v-2.42l-.12-.29c-.86-2.03-1.29-5.21-1.29-9.47M244.33,110.4c-2.72,0-4.84-.71-6.48-2.17-1.59-1.42-2.37-3.15-2.37-5.3,0-2.62,1.18-4.63,3.6-6.15,2.62-1.65,6.38-2.51,11.18-2.57h7.59v8.29c-1.1,2.33-2.83,4.23-5.15,5.65-2.44,1.5-5.26,2.26-8.38,2.26"/>
  <rect class="st0" x="273.66" y="52.47" width="8.32" height="64.79"/>
  <rect class="st0" x="289.76" y="52.47" width="8.32" height="64.79"/>
  <path class="st0" d="M360.03,76.04c-.48-.83-1.01-1.63-1.56-2.32-1.97-2.49-4.13-3.81-4.84-4.25-3.76-2.3-7.75-2.78-10.44-2.78-.47,0-.9.01-1.26.04-1.38.08-5.03.29-9,2.59-1.36.79-4.78,3.07-7.21,7.32-2.89,5.05-2.79,10.19-2.74,12.95,0,.31.01.6.01.84v43.28h8.28v-19.91c3.41,2.86,7.78,4.31,13.01,4.31,5.88,0,10.64-2.36,14.14-7.01,3.4-4.51,5.12-10.62,5.12-18.19v-.73c0-3.87-.43-7.39-1.26-10.46-.48-1.76-1.09-3.67-2.24-5.69M331.26,103.65v-16.46c-.02-.29-.45-7.22,4.5-10.76,1.28-.91,3.53-2.01,6.93-2.01h.29c1.02.01,3.16.03,5.41,1.28,1.34.74,2.48,1.79,3.48,3.21,2.23,3.15,3.35,7.56,3.35,13.12,0,6.19-1.12,10.93-3.34,14.1-2.12,3.03-5,4.5-8.81,4.5-2.8,0-5.26-.63-7.29-1.87-1.92-1.18-3.44-2.89-4.52-5.1"/>
  <path class="st0" d="M480.79,76.04c-.47-.83-1.01-1.63-1.56-2.32-1.97-2.49-4.13-3.81-4.84-4.25-3.76-2.3-7.75-2.78-10.44-2.78-.47,0-.9.01-1.26.04-1.38.08-5.03.29-9,2.59-1.36.79-4.78,3.07-7.21,7.32-2.89,5.05-2.79,10.19-2.74,12.95,0,.31.01.6.01.84v43.28h8.28v-19.91c3.41,2.86,7.78,4.31,13.01,4.31,5.88,0,10.64-2.36,14.14-7.01,3.4-4.51,5.12-10.62,5.12-18.19v-.73c0-3.87-.43-7.39-1.26-10.46-.48-1.76-1.09-3.67-2.24-5.69M452.02,103.65v-16.46c-.02-.29-.45-7.22,4.5-10.76,1.28-.91,3.53-2.01,6.93-2.01h.29c1.02.01,3.16.03,5.41,1.28,1.34.74,2.48,1.79,3.48,3.21,2.23,3.15,3.36,7.56,3.36,13.12,0,6.19-1.12,10.93-3.34,14.1-2.12,3.03-5,4.5-8.81,4.5-2.8,0-5.26-.63-7.29-1.87-1.92-1.18-3.44-2.89-4.52-5.1"/>
  <path class="st0" d="M394.78,67.86l-.31-.07c-.08-.02-1.97-.43-4.75-.43-4.56,0-10.99,1.12-15.65,6.43-4.13,4.7-4.1,11.07-4.08,15.71v27.77h8.28v-32.27c0-2.64,2.15-6.15,4.15-7.76,1.94-1.57,4.28-2.33,7.14-2.33,1.12,0,2.2.09,3.19.28l1.82.34.21-7.65v-.02Z"/>
  <path class="st0" d="M558.34,67.35c-4.57,0-10.99,1.12-15.65,6.43-4.13,4.7-4.1,11.07-4.08,15.71v27.77h8.28v-32.27c0-2.64,2.15-6.15,4.15-7.76,1.95-1.57,4.28-2.33,7.14-2.33,1.12,0,2.2.09,3.19.28l1.82.34.21-7.65-.31-.07c-.08-.02-1.97-.43-4.75-.43"/>
  <path class="st0" d="M415.37,66.79c-4.29,0-8.2,1.09-11.6,3.23-3.4,2.14-6.07,5.17-7.92,9-1.83,3.78-2.75,8.07-2.75,12.75v1.03c0,7.52,2.08,13.67,6.17,18.29,4.14,4.67,9.59,7.03,16.19,7.03,4.31,0,8.22-1.06,11.61-3.15,3.39-2.1,6.06-5.11,7.91-8.96,1.83-3.79,2.76-8.1,2.76-12.81v-1.07c0-7.52-2.07-13.67-6.15-18.29-4.13-4.67-9.59-7.03-16.21-7.03M415.46,110.62c-4.2,0-7.5-1.56-10.08-4.76-2.63-3.25-3.96-7.51-3.96-12.67v-.95c0-5.41,1.34-9.82,3.99-13.11,2.6-3.23,5.86-4.8,9.97-4.8,2.72,0,5.16.72,7.26,2.15,2.11,1.44,3.79,3.52,4.98,6.18,1.22,2.74,1.84,5.8,1.84,9.1v.99c0,5.44-1.33,9.85-3.96,13.11-2.58,3.2-5.86,4.75-10.03,4.75"/>
  <path class="st0" d="M512.2,66.79c-3.91,0-7.58,1.12-10.92,3.33-3.32,2.2-5.94,5.25-7.78,9.07-1.83,3.78-2.75,8.07-2.75,12.75v1.85c0,4.56.95,8.74,2.83,12.42,1.9,3.72,4.6,6.67,8.03,8.77,3.43,2.09,7.31,3.15,11.54,3.15,7.7,0,13.67-2.99,17.74-8.88l.86-1.24-5.67-4.31-.96,1.23c-1.56,2-3.29,3.46-5.16,4.35-1.87.9-4.09,1.35-6.6,1.35-4.13,0-7.47-1.54-10.2-4.71-2.64-3.06-4.03-6.94-4.14-11.53h33.13v-4.46c0-7.03-1.8-12.68-5.34-16.81-3.61-4.19-8.52-6.32-14.61-6.32M512.2,74.34c3.44,0,6.13,1.2,8.24,3.66,1.96,2.29,3.1,5.26,3.38,8.85h-24.37c.68-3.6,2.08-6.54,4.14-8.75,2.36-2.52,5.17-3.75,8.61-3.75"/>
  <path class="st0" d="M586.14,110.08c-1.82.27-3.15.41-3.93.41-1.66,0-2.76-.41-3.38-1.25-.72-.97-1.09-2.59-1.09-4.82v-29.4h9.62v-7.38h-9.62v-11.89h-8.32v48.67c0,4.32.92,7.69,2.74,10.01,1.91,2.44,4.91,3.68,8.93,3.68,2.53,0,4.5-.27,6.03-.81l1.11-.4-.36-7.09-1.73.26h0Z"/>
  <path class="st0" d="M597.64,50.78c-1.54,0-2.79.51-3.73,1.5-.91.97-1.37,2.16-1.37,3.54s.47,2.57,1.38,3.53c.93.98,2.18,1.47,3.72,1.47s2.78-.49,3.72-1.45c.94-.96,1.42-2.15,1.42-3.54s-.47-2.59-1.41-3.56c-.95-.99-2.21-1.48-3.73-1.48"/>
  <rect class="st0" x="593.71" y="67.65" width="8.32" height="49.61"/>
  <path class="st0" d="M629.93,66.79c-3.91,0-7.58,1.12-10.92,3.33-3.32,2.2-5.94,5.25-7.78,9.07-1.83,3.78-2.75,8.07-2.75,12.75v1.85c0,4.56.95,8.74,2.83,12.42,1.9,3.72,4.6,6.67,8.03,8.77,3.43,2.09,7.31,3.15,11.54,3.15,7.71,0,13.67-2.99,17.74-8.88l.86-1.24-5.67-4.31-.96,1.23c-1.56,2-3.29,3.46-5.16,4.35-1.87.9-4.09,1.35-6.6,1.35-4.13,0-7.47-1.54-10.2-4.71-2.64-3.06-4.03-6.94-4.14-11.53h33.13v-4.46c0-7.03-1.8-12.68-5.34-16.81-3.61-4.19-8.52-6.32-14.61-6.32M629.93,74.34c3.44,0,6.13,1.2,8.24,3.66,1.96,2.29,3.1,5.26,3.38,8.85h-24.37c.68-3.6,2.08-6.54,4.14-8.75,2.36-2.52,5.17-3.75,8.61-3.75"/>
  <path class="st0" d="M687.36,91.75c-2.4-1.28-5.84-2.44-10.51-3.54-4.28-1-7.22-2.09-8.73-3.23-1.29-.96-1.92-2.31-1.92-4.12s.79-3.39,2.42-4.58c1.76-1.29,4.18-1.95,7.2-1.95s5.64.79,7.62,2.36c1.89,1.5,2.81,3.31,2.81,5.54v1.58h8.32v-1.58c0-4.6-1.78-8.39-5.28-11.25-3.41-2.79-7.94-4.2-13.47-4.2-5.12,0-9.41,1.32-12.74,3.92-3.45,2.69-5.2,6.16-5.2,10.33,0,2.63.65,4.93,1.92,6.81,1.25,1.85,3.16,3.43,5.67,4.67,2.42,1.2,5.68,2.23,9.97,3.14,3.87.82,6.77,1.94,8.62,3.34,1.64,1.24,2.44,2.83,2.44,4.87,0,1.88-.86,3.41-2.64,4.68-1.92,1.37-4.53,2.06-7.75,2.06-3.48,0-6.28-.74-8.33-2.22-1.95-1.4-2.97-3.3-3.14-5.83l-.09-1.48h-8.22v1.58c0,4.5,1.9,8.26,5.66,11.19,3.63,2.83,8.38,4.26,14.13,4.26,5.42,0,9.9-1.29,13.33-3.83,3.57-2.65,5.38-6.24,5.38-10.68,0-2.7-.63-5.05-1.88-7-1.24-1.91-3.12-3.55-5.59-4.87"/>
  <path class="st0" d="M917.07,80.9c-.48-1.74-1.07-3.64-2.22-5.64-.47-.82-1-1.62-1.54-2.3-1.95-2.47-4.09-3.77-4.79-4.2-3.72-2.28-7.68-2.76-10.34-2.76-.47,0-.89.01-1.25.03-1.36.08-4.98.29-8.91,2.57-1.34.78-4.73,3.05-7.14,7.25-2.86,5-2.77,10.09-2.72,12.83v45.07h8.2v-21.09c3.38,2.83,7.7,4.26,12.88,4.26,5.82,0,10.53-2.33,14.01-6.94,3.37-4.46,5.07-10.52,5.07-18.01v-.72c0-3.83-.42-7.32-1.25-10.36M890.84,107.63c-1.9-1.16-3.4-2.86-4.48-5.05v-16.3c-.02-.29-.45-7.15,4.46-10.65,1.27-.9,3.49-1.99,6.85-1.99h.29c1.01.01,3.12.03,5.35,1.27,1.33.74,2.45,1.77,3.45,3.17,2.2,3.11,3.32,7.48,3.32,12.99,0,6.13-1.11,10.82-3.31,13.95-2.1,2.99-4.95,4.45-8.72,4.45-2.78,0-5.2-.62-7.21-1.85"/>
  <path class="st0" d="M788.7,74.73l.21-7.58-.31-.07c-.08-.02-1.96-.43-4.71-.43-4.52,0-10.88,1.1-15.5,6.37-4.09,4.65-4.06,10.96-4.04,15.56v27.5h8.2v-31.96c0-2.61,2.13-6.08,4.11-7.68,1.92-1.55,4.23-2.31,7.07-2.31,1.11,0,2.17.09,3.16.27l1.81.33Z"/>
  <path class="st0" d="M757.38,88.67c.05-2.74.14-7.83-2.72-12.83-2.41-4.21-5.8-6.48-7.14-7.25-3.93-2.28-7.55-2.49-8.91-2.57-.36-.02-.78-.04-1.25-.04-2.66,0-6.62.48-10.34,2.76-.7.43-2.84,1.74-4.79,4.2-.54.68-1.07,1.48-1.54,2.3-1.14,2-1.74,3.89-2.22,5.64-.83,3.04-1.25,6.53-1.25,10.36v.72c0,7.49,1.71,13.55,5.07,18.01,3.47,4.6,8.18,6.94,14.01,6.94,5.15,0,9.47-1.43,12.84-4.24v1.62c-.08,4.02-1.18,7.18-3.27,9.38s-4.97,3.27-8.8,3.27c-4.5,0-8.3-1.98-11.61-6.05l-1.14-1.4-4.95,5.32.73,1.04c1.82,2.58,4.33,4.68,7.46,6.22,3.11,1.53,6.42,2.3,9.85,2.3,6.09,0,11-1.91,14.6-5.67,3.59-3.74,5.41-8.84,5.41-15.15v-14.89l-.04-9.17c0-.25,0-.52.01-.83M725.45,91.07c0-5.5,1.12-9.87,3.32-12.99.99-1.4,2.12-2.44,3.45-3.17,2.23-1.24,4.34-1.26,5.35-1.26h.28c3.37,0,5.59,1.08,6.86,1.98,4.91,3.5,4.48,10.36,4.46,10.67v16.27c-1.08,2.19-2.58,3.88-4.48,5.05-2.01,1.23-4.44,1.85-7.21,1.85-3.77,0-6.62-1.46-8.72-4.45-2.2-3.13-3.31-7.83-3.31-13.95"/>
  <path class="st0" d="M808.07,66.09c-4.25,0-8.12,1.07-11.48,3.19-3.37,2.12-6.01,5.12-7.85,8.91-1.81,3.74-2.73,7.99-2.73,12.63v1.02c0,7.45,2.05,13.54,6.11,18.11,4.1,4.62,9.5,6.97,16.03,6.97,4.27,0,8.14-1.05,11.49-3.12,3.36-2.08,6-5.06,7.83-8.88,1.81-3.75,2.73-8.02,2.73-12.69v-1.06c0-7.44-2.05-13.53-6.09-18.11-4.09-4.62-9.49-6.97-16.05-6.97M808.16,109.48c-4.16,0-7.42-1.54-9.97-4.71-2.6-3.22-3.92-7.44-3.92-12.54v-.94c0-5.36,1.33-9.72,3.95-12.97,2.57-3.2,5.8-4.75,9.87-4.75,2.69,0,5.11.72,7.19,2.13,2.09,1.43,3.75,3.48,4.93,6.12,1.21,2.71,1.82,5.74,1.82,9.01v.98c0,5.38-1.32,9.75-3.92,12.97-2.55,3.17-5.8,4.71-9.93,4.71"/>
  <path class="st0" d="M864.59,97.86c.03,5.83-4.59,10.76-10.29,10.99h-.41c-2.81,0-5.48-1.13-7.53-3.19-2.09-2.1-3.23-4.87-3.22-7.81v-30.85h-8.2v31.52c.34,10.18,8.83,18.47,18.94,18.47h.36c10.07-.2,18.22-8.31,18.56-18.48v-31.5h-8.2v30.86h-.01Z"/>
  <rect class="st0" x="40.18" y="55.8" width="136.78" height="113.11"/>
  <path class="st2" d="M109.71,15.97C54.41,15.97,9.58,60.8,9.58,116.1s44.83,100.13,100.13,100.13,100.13-44.83,100.13-100.13S165.01,15.97,109.71,15.97M78.72,154.24h-38.54l45.24-78.35,19.3,33.36-26,44.99ZM138.43,154.24l-49.18-85.01h38.63l49.08,85.01h-38.53Z"/>
</svg>