<?xml version="1.0" encoding="UTF-8"?>
<svg id="Layer_1" xmlns="http://www.w3.org/2000/svg" version="1.1" viewBox="0 0 900.83 342.15">
  <!-- Generator: Adobe Illustrator 30.0.0, SVG Export Plug-In . SVG Version: 2.1.1 Build 123)  -->
  <defs>
    <style>
      .st0 {
        fill: #fff;
      }
    </style>
  </defs>
  <g>
    <path class="st0" d="M158.66,44.54h-2.47c-1.23-19.23-1.98-42.92-28.16-42.92-16.79,0-27.17,14.98-35.56,32.79-3.7,8.1-8.15,18.22-13.09,38.67-4.94,20.65-4.94,31.98-4.94,38.67,0,17.41,4.94,32.59,22.72,32.59,25.93,0,38.03-25.71,49.4-44.94h2.47l-12.6,44.33h-2.47c-.25-1.62-.49-6.48-2.96-6.48-3.46,0-15.81,8.7-34.58,8.7-32.6,0-44.95-22.67-44.95-49.4,0-7.69.99-15.79,2.72-23.48C62.59,37.45,89.26,0,129.52,0c18.77,0,29.14,8.71,32.6,8.71,2.72,0,4.69-3.64,6.17-6.48h2.47l-12.1,42.31h0Z"/>
    <path class="st0" d="M197.19,8.71c.49-1.82.74-4.05-2.47-4.05l-9.14-.2.49-1.62h16.79c4.69,0,13.34-1.01,16.79-1.62l-19.76,68.22c12.84-11.74,24.94-17.81,38.03-17.81,11.36,0,17.29,6.48,17.29,15.79,0,1.62-.25,4.05-.99,6.28l-16.3,52.03c-.49,1.42-1.23,4.45-1.23,6.28,0,3.24.49,7.09,5.93,7.09,6.17,0,12.84-6.28,17.29-11.74l1.48,1.01c-6.42,8.5-14.08,17-29.14,17-10.13,0-15.81-6.88-15.81-13.16,0-1.21.25-4.66.74-5.87l16.55-52.23c.74-2.23.99-4.05.99-5.67,0-6.88-4.2-8.91-9.38-8.91-10.62,0-20.99,7.69-26.43,13.16l-20.25,70.45h-20.01L197.19,8.71Z"/>
    <path class="st0" d="M285.85,59.92c.49-1.82.74-4.05-2.72-4.05l-8.89-.2.49-1.62h15.81c4.69,0,13.58-1.01,16.79-1.62l-4.94,17c6.17-8.5,18.28-17.61,28.9-17.61,7.9,0,13.09,4.25,13.09,11.54,0,6.68-5.93,12.15-12.6,12.15-5.19,0-11.61-3.24-11.61-10.12,0-4.25,1.98-7.9,7.41-9.92l-.25-.61c-9.88,1.21-21.24,11.94-25.93,18.22l-20.01,70.04h-19.26l23.71-83.2h.01Z"/>
    <path class="st0" d="M360.69,125.71c-.49,1.42-.99,4.45-.99,6.28,0,3.24.49,7.09,6.17,7.09,6.17,0,13.09-6.68,17.29-12.15l1.48,1.01c-6.42,8.5-14.32,17.41-29.64,17.41-10.13,0-15.81-6.88-15.81-13.16,0-2.43.25-4.66.74-5.87l19.76-66.4c.49-1.82.74-4.05-2.72-4.05l-8.64-.2.49-1.62h16.55c4.69,0,13.58-1.01,16.79-1.62l-21.49,73.28h.02ZM380.94,28.34c-6.92,0-12.35-4.66-12.35-10.73s5.43-10.73,12.35-10.73,12.1,4.66,12.1,10.73-5.43,10.73-12.1,10.73Z"/>
    <path class="st0" d="M449.1,81.58c-5.93,0-10.87-3.85-10.87-9.51,0-7.49,6.42-11.74,14.32-11.74v-1.01c-4.45-4.45-12.84-6.28-19.26-6.28-15.31,0-20.01,8.5-20.01,17,0,9.51,9.39,15.18,22.48,23.89,10.62,6.88,17.54,11.74,17.54,24.09,0,14.78-17.04,27.53-40.26,27.53-21.98,0-33.84-12.75-33.84-23.48,0-7.69,6.42-12.35,13.09-12.35,6.17,0,11.36,4.25,11.36,9.92,0,10.12-8.15,12.96-15.07,12.55v1.01c2.22,5.06,11.36,10.93,24.45,10.93,17.29,0,22.72-9.51,22.72-18.83s-9.14-15.39-19.76-22.47c-11.36-7.49-18.28-13.16-18.28-23.89,0-14.58,13.83-27.33,35.07-27.33,18.28,0,29.39,8.1,29.39,18.42,0,7.08-6.17,11.54-13.09,11.54h.02Z"/>
    <path class="st0" d="M527.15,55.87h-20.5l-20.5,69.84c-.74,2.02-.99,4.45-.99,6.28,0,3.24,1.23,7.09,6.67,7.09,6.17,0,13.09-6.07,17.78-12.55l1.48,1.01c-6.42,8.71-13.34,17.81-30.38,17.81-10.62,0-16.05-6.68-16.05-12.96,0-1.21.74-5.06,1.23-6.48l20.5-70.04h-12.6l.49-1.82h12.6l8.4-27.94h6.92l13.34-1.62-8.4,29.56h20.25l-.25,1.82h0Z"/>
    <path class="st0" d="M645.69,74.7c.49-2.23.74-4.05.74-5.67,0-6.88-3.95-9.51-9.14-9.51-10.37,0-18.52,7.69-24.2,13.16l-20.5,70.45h-20.25l20-68.42c.25-1.82.74-3.85.74-5.26,0-7.49-4.2-9.92-9.63-9.92-8.89,0-19.02,7.9-24.2,13.16l-20.25,70.45h-20.25l23.96-83.2c.49-1.82.74-4.05-2.72-4.05l-7.9-.2.49-1.62h15.81c4.69,0,13.34-1.01,16.55-1.62l-4.94,17c12.84-11.74,22.23-17.81,35.57-17.81,12.35,0,18.52,8.3,17.78,18.22,12.84-11.94,22.23-18.22,36.8-18.22,11.36,0,17.04,6.48,17.04,15.79,0,1.62-.25,4.05-.74,6.28l-16.55,52.03c-.49,1.42-.99,4.45-.99,6.28,0,3.24.74,7.09,6.17,7.09,6.17,0,12.6-6.28,16.79-11.74l1.48,1.01c-6.42,8.5-13.58,17-29.14,17-10.37,0-15.81-6.88-15.81-13.16,0-2.23.25-4.66.74-5.87l16.55-51.62v-.03Z"/>
    <path class="st0" d="M773.38,128.35c-6.92,8.7-14.32,17-29.39,17-9.88,0-14.57-6.48-14.57-12.75v-2.63c-8.64,9.51-18.28,15.59-29.88,15.59-18.03,0-25.19-11.54-25.19-26.52,0-6.48.74-12.96,2.72-20.04,6.67-24.9,24.2-47.37,49.64-47.37,11.61,0,17.54,5.06,20.75,13.36l3.21-10.93h7.66c4.45,0,9.63-1.01,13.09-1.62l-21.24,73.28c-.49,1.42-1.24,4.45-1.24,6.28,0,3.24.49,7.09,5.93,7.09,6.42,0,13.09-7.09,17.04-11.74l1.48,1.01h0ZM746.71,68.63c-1.73-6.07-5.68-12.75-17.54-12.75-7.66,0-13.09,5.06-19.76,15.99-4.45,7.09-8.4,17.61-10.62,26.72-2.47,9.92-3.95,18.83-3.95,26.32,0,9.51,3.95,14.98,11.11,14.98,10.87,0,19.26-8.1,23.46-13.16l17.29-58.1h.01Z"/>
    <path class="st0" d="M837.1,81.58c-5.93,0-10.87-3.85-10.87-9.51,0-7.49,6.42-11.74,14.32-11.74v-1.01c-4.45-4.45-12.84-6.28-19.26-6.28-15.31,0-20.01,8.5-20.01,17,0,9.51,9.39,15.18,22.48,23.89,10.62,6.88,17.54,11.74,17.54,24.09,0,14.78-17.04,27.53-40.26,27.53-21.98,0-33.84-12.75-33.84-23.48,0-7.69,6.42-12.35,13.09-12.35,6.17,0,11.36,4.25,11.36,9.92,0,10.12-8.15,12.96-15.07,12.55v1.01c2.22,5.06,11.36,10.93,24.45,10.93,17.29,0,22.72-9.51,22.72-18.83s-9.14-15.39-19.76-22.47c-11.36-7.49-18.28-13.16-18.28-23.89,0-14.58,13.83-27.33,35.07-27.33,18.28,0,29.39,8.1,29.39,18.42,0,7.08-6.17,11.54-13.09,11.54h.02Z"/>
  </g>
  <g>
    <path class="st0" d="M19.95,189.69h21.73l-16.38,93.42h57.25l-3.57,20.11H0l19.95-113.53h0Z"/>
    <path class="st0" d="M85.79,303.22l14.76-84.34h20.27l-14.76,84.34h-20.27ZM116.61,185.64c7.3,0,11.84,5.51,10.54,12.81-1.14,7.3-7.78,12.98-15.08,12.98s-11.84-5.35-10.7-12.98c1.3-7.3,7.95-12.81,15.25-12.81h-.01Z"/>
    <path class="st0" d="M128.28,334.85c-6.81-4.7-11.03-10.7-12.49-18l21.25-5.84c1.78,6.33,9.41,11.03,18.33,11.03,6.33,0,11.84-2.11,16.87-6.16s8.11-8.92,9.24-14.92l.81-4.38c-8.43,6-17.52,9.08-27.25,9.08-11.68,0-20.76-4.22-27.08-12.65-6.33-8.6-8.27-19.14-6-31.95,2.11-12.81,7.95-23.36,17.19-31.79,9.41-8.6,19.95-12.81,31.63-12.81,9.57,0,17.68,3.08,24,9.25l1.14-6.81h20.11l-14.43,82.07c-2.11,11.68-7.78,21.41-17.35,29.36-9.57,7.95-20.11,11.84-31.79,11.84-9.24,0-17.19-2.43-24.17-7.3v-.02ZM184.72,243.7c-3.57-4.7-8.6-6.97-14.92-6.97s-12.16,2.27-17.35,6.97-8.43,10.38-9.57,17.35c-1.14,6.97,0,12.65,3.41,17.35,3.57,4.7,8.6,6.97,14.92,6.97s12.16-2.27,17.35-6.97,8.43-10.38,9.73-17.35c1.14-6.97,0-12.65-3.57-17.35h0Z"/>
    <path class="st0" d="M233.05,303.22h-20.27l21.41-121.64h20.27l-8.43,47.68c7.79-8.6,17.19-12.81,28.38-12.81,9.89,0,17.35,3.08,22.71,9.41,5.35,6.33,7.14,14.11,5.35,23.52l-9.41,53.85h-20.11l8.43-48.17c1.78-11.03-5.03-19.3-16.54-19.3s-21.25,8.11-23.19,18.65l-8.6,48.82h0Z"/>
    <path class="st0" d="M312.36,218.89h12l2.92-16.54h20.27l-2.92,16.54h20.92l-3.08,17.68h-20.92l-6.65,37.14c-.81,5.84,2.76,10.22,8.6,10.22h10.54l-3.24,19.3h-12.49c-8.11,0-14.43-2.59-19.14-7.62-4.7-5.03-6.33-11.35-4.87-18.98l7.14-40.06h-12.16l3.08-17.68h0Z"/>
    <path class="st0" d="M411.78,242.24c-.81-5.51-5.19-8.27-13.3-8.27s-12.16,2.43-13.14,7.3c-.49,2.76,1.62,5.03,6.16,6.81l16.38,5.84c14.43,5.35,19.79,13.14,17.68,25.3-1.46,8.76-5.84,15.41-12.81,19.79s-15.41,6.65-25.14,6.65c-20.27,0-31.3-9.41-30.81-24.81l19.46-2.76c.49,6,5.68,10.06,14.92,10.06,7.78,0,14.11-3.08,14.92-8.27.65-3.24-1.95-6-7.95-8.11l-16.38-5.51c-13.46-4.7-18.17-11.68-16.06-23.52,3.24-17.68,18-26.27,37.3-26.27s28.54,8.6,28.38,22.71l-19.62,3.08v-.02Z"/>
    <path class="st0" d="M497.4,204.29c13.46-11.35,28.87-17.03,46.06-17.03,23.84,0,41.68,12.49,48.01,31.95l-22.54,7.95c-4.05-11.68-14.92-18.98-29.19-18.98-10.54,0-20.11,3.73-28.71,11.03-8.43,7.3-13.62,16.38-15.57,27.25s-.16,19.95,5.51,27.25c5.68,7.3,13.46,10.87,23.52,10.87,7.79,0,15.25-2.27,22.38-6.65,7.14-4.38,12.49-10.22,16.06-17.52h-35.68l3.57-19.79h60.5c-.16,2.59-.49,4.54-.81,5.68-2.92,16.71-11.03,30.81-24.33,42.33-13.14,11.35-28.22,17.03-44.92,17.03s-29.68-5.68-38.92-16.87c-9.24-11.35-12.49-25.46-9.57-42.33,3.08-16.87,11.19-30.98,24.65-42.17h-.02Z"/>
    <path class="st0" d="M600.39,296.25c-5.19-6.33-6.97-14.11-5.19-23.52l9.41-53.85h20.27l-8.43,48.01c-1.95,11.03,4.7,19.46,15.57,19.46,5.35,0,10.22-1.78,14.6-5.35,4.38-3.73,6.97-8.27,7.95-13.62l8.6-48.49h20.27l-14.76,84.34h-20.27l1.78-10.22c-7.62,8.43-16.87,12.65-27.57,12.65-9.57,0-16.87-3.08-22.22-9.41h-.01Z"/>
    <path class="st0" d="M680.18,303.22l14.76-84.34h20.27l-14.76,84.34h-20.27ZM710.99,185.64c7.3,0,11.84,5.51,10.54,12.81-1.14,7.3-7.79,12.98-15.08,12.98s-11.84-5.35-10.7-12.98c1.3-7.3,7.95-12.81,15.25-12.81h0Z"/>
    <path class="st0" d="M722.35,293.01c-6.33-8.6-8.27-19.14-6-31.95,2.11-12.81,7.95-23.36,17.19-31.79,9.41-8.6,19.95-12.81,31.63-12.81,9.89,0,17.84,3.08,24,9.25l7.79-44.11h20.11l-21.41,121.64h-20.11l1.14-6.81c-8.43,6.16-17.52,9.24-27.25,9.24-11.68,0-20.76-4.22-27.08-12.65h-.01ZM779.11,243.7c-3.57-4.7-8.6-6.97-14.92-6.97s-12.16,2.27-17.35,6.97-8.43,10.38-9.57,17.35c-1.14,6.97,0,12.65,3.41,17.35,3.57,4.7,8.6,6.97,14.92,6.97s12.16-2.27,17.35-6.97,8.43-10.38,9.73-17.35c1.13-6.97,0-12.65-3.57-17.35h0Z"/>
    <path class="st0" d="M898.15,268.52h-66.98c1.14,11.03,9.25,18.49,21.41,18.49,8.27,0,15.25-2.92,21.25-8.92l18.65,5.68c-9.89,13.46-26.27,21.89-43.3,21.89-12.97,0-23.03-4.22-30.33-12.65-7.14-8.6-9.57-19.14-7.3-31.95,2.11-12.81,8.27-23.36,18.17-31.79,10.05-8.6,21.41-12.81,33.9-12.81s22.22,4.22,29.19,12.81c6.97,8.43,9.41,18.98,7.3,31.79l-1.95,7.46h-.01ZM880.47,252.78c-1.3-10.54-9.41-17.68-20.6-17.68-10.54,0-20.92,7.14-25.95,17.68h46.55Z"/>
  </g>
</svg>